<svg width="24" height="24" viewBox="0 0 24 24" fill="none" xmlns="http://www.w3.org/2000/svg">
<path d="M21.47 11.1849L20.44 9.75494C20.2095 9.43115 19.9051 9.167 19.552 8.98439C19.199 8.80178 18.8075 8.70598 18.41 8.70494H14.03V6.56494C14.03 5.9019 13.7666 5.26602 13.2978 4.79717C12.8289 4.32833 12.193 4.06494 11.53 4.06494H4.56C3.89753 4.06679 3.26272 4.33077 2.79428 4.79921C2.32583 5.26766 2.06185 5.90247 2.06 6.56494V16.5049C2.06 16.9028 2.21804 17.2843 2.49934 17.5656C2.78065 17.8469 3.16218 18.0049 3.56 18.0049H4.78C4.85551 18.54 5.12171 19.0297 5.52961 19.3841C5.93751 19.7385 6.45967 19.9336 7 19.9336C7.54034 19.9336 8.0625 19.7385 8.4704 19.3841C8.87829 19.0297 9.14449 18.54 9.22 18.0049H14.78C14.8555 18.54 15.1217 19.0297 15.5296 19.3841C15.9375 19.7385 16.4597 19.9336 17 19.9336C17.5403 19.9336 18.0625 19.7385 18.4704 19.3841C18.8783 19.0297 19.1445 18.54 19.22 18.0049H20.44C20.8378 18.0049 21.2194 17.8469 21.5007 17.5656C21.782 17.2843 21.94 16.9028 21.94 16.5049V12.6349C21.9376 12.1146 21.7733 11.6078 21.47 11.1849ZM7 18.9349C6.75277 18.9349 6.5111 18.8616 6.30554 18.7243C6.09998 18.5869 5.93976 18.3917 5.84515 18.1633C5.75054 17.9349 5.72579 17.6836 5.77402 17.4411C5.82225 17.1986 5.9413 16.9759 6.11612 16.8011C6.29093 16.6262 6.51366 16.5072 6.75614 16.459C6.99861 16.4107 7.24995 16.4355 7.47836 16.5301C7.70676 16.6247 7.90199 16.7849 8.03934 16.9905C8.17669 17.196 8.25 17.4377 8.25 17.6849C8.25 18.0165 8.11831 18.3344 7.88388 18.5688C7.64946 18.8032 7.33152 18.9349 7 18.9349ZM13.03 17.0049H9.15C9.0044 16.5491 8.71766 16.1513 8.3312 15.869C7.94474 15.5867 7.47856 15.4346 7 15.4346C6.52144 15.4346 6.05526 15.5867 5.6688 15.869C5.28234 16.1513 4.9956 16.5491 4.85 17.0049H3.56C3.42739 17.0049 3.30022 16.9523 3.20645 16.8585C3.11268 16.7647 3.06 16.6375 3.06 16.5049V6.56494C3.06 6.16712 3.21804 5.78559 3.49934 5.50428C3.78065 5.22298 4.16218 5.06494 4.56 5.06494H11.53C11.9278 5.06494 12.3094 5.22298 12.5907 5.50428C12.872 5.78559 13.03 6.16712 13.03 6.56494V17.0049ZM17 18.9349C16.7528 18.9349 16.5111 18.8616 16.3055 18.7243C16.1 18.5869 15.9398 18.3917 15.8452 18.1633C15.7505 17.9349 15.7258 17.6836 15.774 17.4411C15.8223 17.1986 15.9413 16.9759 16.1161 16.8011C16.2909 16.6262 16.5137 16.5072 16.7561 16.459C16.9986 16.4107 17.2499 16.4355 17.4784 16.5301C17.7068 16.6247 17.902 16.7849 18.0393 16.9905C18.1767 17.196 18.25 17.4377 18.25 17.6849C18.25 18.0165 18.1183 18.3344 17.8839 18.5688C17.6495 18.8032 17.3315 18.9349 17 18.9349ZM20.94 16.5049C20.94 16.6375 20.8873 16.7647 20.7936 16.8585C20.6998 16.9523 20.5726 17.0049 20.44 17.0049H19.15C19.0044 16.5491 18.7177 16.1513 18.3312 15.869C17.9447 15.5867 17.4786 15.4346 17 15.4346C16.5214 15.4346 16.0553 15.5867 15.6688 15.869C15.2823 16.1513 14.9956 16.5491 14.85 17.0049H14.03V9.70494H18.41C18.6486 9.70654 18.8834 9.76443 19.0954 9.8739C19.3074 9.98337 19.4906 10.1413 19.63 10.3349L20.66 11.7649C20.84 12.0196 20.9377 12.3232 20.94 12.6349V16.5049Z" fill="#797979"/>
<path d="M18.029 12.2048H16.029C15.8964 12.2048 15.7692 12.1522 15.6754 12.0584C15.5817 11.9646 15.529 11.8374 15.529 11.7048C15.529 11.5722 15.5817 11.445 15.6754 11.3513C15.7692 11.2575 15.8964 11.2048 16.029 11.2048H18.029C18.1616 11.2048 18.2888 11.2575 18.3826 11.3513C18.4763 11.445 18.529 11.5722 18.529 11.7048C18.529 11.8374 18.4763 11.9646 18.3826 12.0584C18.2888 12.1522 18.1616 12.2048 18.029 12.2048Z" fill="#797979"/>
</svg>
